# xmcd
#
# Track frame offsets: 
#        150
#        15105
#        28150
#        43978
#        61028
#        75510
#        90885
#        108208
#        120303
#        136030
#        152730
#        168608
#        185728
#
# Disc length: 2676 seconds
#
# Revision: 3
# Processed by: cddbd v1.5.2PL0 Copyright (c) Steve Scherf et al.
# Submitted via: ExactAudioCopy v0.99pb4
#
DISCID=900a720d
DTITLE=Ronald - Gezelligheid Tot Sluitingstijd
DYEAR=1993
DGENRE=Hollands
TTITLE0=Transsexueel
TTITLE1=Bruine Ogen
TTITLE2=Het Meissie Met De Grote Oorbellen
TTITLE3=M'n Schoonmoeder
TTITLE4=In Ons Stamcafé
TTITLE5=Onder Haar Rokken
TTITLE6=De Sneuvelkroeg
TTITLE7=Eenmaal Komen Er Tranen
TTITLE8=Amsterdam Ik Hou Van Jou
TTITLE9=Rosa
TTITLE10=Laat De Hele Boel Maar Waaien
TTITLE11=Zo Tussen De Mensen
TTITLE12=Rio's Carnaval
EXTD=
EXTT0=
EXTT1=
EXTT2=
EXTT3=
EXTT4=
EXTT5=
EXTT6=
EXTT7=
EXTT8=
EXTT9=
EXTT10=
EXTT11=
EXTT12=
PLAYORDER=
